<svg xmlns="http://www.w3.org/2000/svg" viewBox="0 0 500 500">
  <!-- Definiciones de colores y efectos -->
  <defs>
    <linearGradient id="gradientBlue" x1="0%" y1="0%" x2="100%" y2="100%">
      <stop offset="0%" style="stop-color:#1a237e;stop-opacity:1" />
      <stop offset="100%" style="stop-color:#303f9f;stop-opacity:1" />
    </linearGradient>
    <linearGradient id="gradientGreen" x1="0%" y1="0%" x2="100%" y2="100%">
      <stop offset="0%" style="stop-color:#2E7D32;stop-opacity:1" />
      <stop offset="100%" style="stop-color:#388E3C;stop-opacity:1" />
    </linearGradient>
    <filter id="shadow" x="-10%" y="-10%" width="120%" height="120%">
      <feDropShadow dx="1" dy="1" stdDeviation="2" flood-opacity="0.2"/>
    </filter>

    <!-- Filtro para efecto de brillo -->
    <filter id="glow" x="-20%" y="-20%" width="140%" height="140%">
      <feGaussianBlur stdDeviation="2" result="blur" />
      <feComposite in="SourceGraphic" in2="blur" operator="over" />
    </filter>

    <!-- Patrones para fondos -->
    <pattern id="gridPattern" width="10" height="10" patternUnits="userSpaceOnUse">
      <path d="M 0 0 L 10 0 L 10 10 L 0 10 Z" fill="none" stroke="#f0f0f0" stroke-width="0.5"/>
    </pattern>
  </defs>
  
  <!-- Fondo general con patrón sutli -->
  <rect x="0" y="0" width="500" height="500" fill="url(#gridPattern)"/>
  
  <!-- Rectángulo central con efecto sutil -->
  <rect x="215" y="215" width="70" height="70" rx="10" fill="#f5f5f5" filter="url(#shadow)" opacity="0.8"/>
  
  <!-- Letras Pg en el centro -->
  <text x="220" y="270" font-family="Arial, Helvetica, sans-serif" font-weight="600" font-size="60" fill="url(#gradientBlue)">P</text>
  <text x="252" y="270" font-family="Arial, Helvetica, sans-serif" font-weight="600" font-size="60" fill="url(#gradientGreen)">g</text>
  
  <!-- Flechas de conexión -->
  <!-- 1. FACTURA -->
  <path d="M250,170 L250,215" stroke="#1565C0" stroke-width="2" fill="none" marker-end="url(#arrowhead)"/>
  
  <!-- 2. NÓMINA -->
  <path d="M310,200 L285,230" stroke="#4CAF50" stroke-width="2" fill="none" marker-end="url(#arrowhead)"/>
  
  <!-- 3. GASTOS -->
  <path d="M330,250 L285,250" stroke="#F44336" stroke-width="2" fill="none" marker-end="url(#arrowhead)"/>
  
  <!-- 4. COMPRAS -->
  <path d="M310,300 L285,270" stroke="#FF9800" stroke-width="2" fill="none" marker-end="url(#arrowhead)"/>
  
  <!-- 5. INVENTARIO -->
  <path d="M250,330 L250,285" stroke="#9C27B0" stroke-width="2" fill="none" marker-end="url(#arrowhead)"/>
  
  <!-- 6. CONTABILIDAD -->
  <path d="M190,300 L215,270" stroke="#3F51B5" stroke-width="2" fill="none" marker-end="url(#arrowhead)"/>
  
  <!-- 7. IMPUESTOS -->
  <path d="M170,250 L215,250" stroke="#795548" stroke-width="2" fill="none" marker-end="url(#arrowhead)"/>
  
  <!-- 8. REPORTES -->
  <path d="M190,200 L215,230" stroke="#009688" stroke-width="2" fill="none" marker-end="url(#arrowhead)"/>
  
  <!-- ICONOS -->
  <!-- 1. FACTURA (arriba) -->
  <g transform="translate(230, 130)">
    <rect x="0" y="0" width="40" height="50" rx="2" fill="#ffffff" stroke="#1565C0" stroke-width="1.5" filter="url(#shadow)"/>
    <rect x="5" y="7" width="30" height="3" rx="1" fill="#90CAF9"/>
    <rect x="5" y="15" width="30" height="3" rx="1" fill="#90CAF9"/>
    <rect x="5" y="23" width="25" height="3" rx="1" fill="#90CAF9"/>
    <rect x="5" y="31" width="20" height="3" rx="1" fill="#90CAF9"/>
    <path d="M0,38 L40,38" stroke="#1565C0" stroke-width="1" stroke-dasharray="2,1"/>
    <rect x="25" y="42" width="10" height="5" rx="1" fill="#1565C0"/>
  </g>
  <text x="250" y="195" font-family="Arial, sans-serif" font-size="10" text-anchor="middle" fill="#1565C0">FACTURAS</text>
  
  <!-- 2. NÓMINA (derecha superior) -->
  <g transform="translate(320, 170)">
    <rect x="0" y="0" width="40" height="40" rx="2" fill="#ffffff" stroke="#4CAF50" stroke-width="1.5" filter="url(#shadow)"/>
    <rect x="5" y="5" width="15" height="8" rx="1" fill="#C8E6C9"/>
    <rect x="22" y="5" width="13" height="8" rx="1" fill="#C8E6C9"/>
    <rect x="5" y="16" width="30" height="3" rx="1" fill="#C8E6C9"/>
    <rect x="5" y="23" width="30" height="3" rx="1" fill="#C8E6C9"/>
    <rect x="5" y="30" width="20" height="3" rx="1" fill="#C8E6C9"/>
    <circle cx="34" cy="34" r="8" fill="#4CAF50"/>
    <text x="34" y="37" font-family="Arial" font-weight="bold" font-size="8" text-anchor="middle" fill="white">$</text>
  </g>
  <text x="340" y="225" font-family="Arial, sans-serif" font-size="10" text-anchor="middle" fill="#4CAF50">NÓMINA</text>
  
  <!-- 3. GASTOS (derecha) -->
  <g transform="translate(340, 230)">
    <path d="M20,0 L35,15 L25,15 L25,30 L15,30 L15,15 L5,15 Z" fill="#F44336"/>
    <rect x="0" y="20" width="40" height="20" rx="2" fill="#ffffff" stroke="#F44336" stroke-width="1.5" filter="url(#shadow)"/>
    <rect x="5" y="25" width="30" height="3" rx="1" fill="#FFCDD2"/>
    <rect x="5" y="32" width="20" height="3" rx="1" fill="#FFCDD2"/>
    <circle cx="35" cy="30" r="5" fill="#F44336"/>
    <text x="35" y="33" font-family="Arial" font-weight="bold" font-size="6" text-anchor="middle" fill="white">-</text>
  </g>
  <text x="360" y="265" font-family="Arial, sans-serif" font-size="10" text-anchor="middle" fill="#F44336">GASTOS</text>
  
  <!-- 4. COMPRAS (derecha inferior) -->
  <g transform="translate(320, 290)">
    <path d="M10,0 L30,0 L35,20 L5,20 Z" fill="#ffffff" stroke="#FF9800" stroke-width="1.5" filter="url(#shadow)"/>
    <path d="M13,5 L27,5" stroke="#FFE0B2" stroke-width="2" stroke-linecap="round"/>
    <path d="M16,10 L24,10" stroke="#FFE0B2" stroke-width="2" stroke-linecap="round"/>
    <rect x="10" y="20" width="5" height="8" fill="#FF9800"/>
    <rect x="25" y="20" width="5" height="8" fill="#FF9800"/>
    <rect x="5" y="28" width="30" height="15" rx="2" fill="#ffffff" stroke="#FF9800" stroke-width="1.5"/>
    <circle cx="15" cy="35" r="3" fill="#FF9800"/>
    <circle cx="25" cy="35" r="3" fill="#FF9800"/>
  </g>
  <text x="340" y="345" font-family="Arial, sans-serif" font-size="10" text-anchor="middle" fill="#FF9800">COMPRAS</text>
  
  <!-- 5. INVENTARIO (abajo) -->
  <g transform="translate(230, 340)">
    <rect x="0" y="0" width="40" height="40" rx="2" fill="#ffffff" stroke="#9C27B0" stroke-width="1.5" filter="url(#shadow)"/>
    <rect x="5" y="5" width="30" height="8" rx="1" fill="#E1BEE7"/>
    <rect x="5" y="16" width="30" height="8" rx="1" fill="#E1BEE7"/>
    <rect x="5" y="27" width="30" height="8" rx="1" fill="#E1BEE7"/>
    <rect x="30" y="5" width="5" height="8" rx="1" fill="#9C27B0"/>
    <rect x="20" y="16" width="15" height="8" rx="1" fill="#9C27B0"/>
    <rect x="10" y="27" width="25" height="8" rx="1" fill="#9C27B0"/>
  </g>
  <text x="250" y="395" font-family="Arial, sans-serif" font-size="10" text-anchor="middle" fill="#9C27B0">INVENTARIO</text>
  
  <!-- 6. CONTABILIDAD (izquierda inferior) -->
  <g transform="translate(140, 290)">
    <rect x="0" y="0" width="40" height="10" rx="2" fill="#3F51B5" filter="url(#shadow)"/>
    <rect x="0" y="10" width="40" height="30" rx="0" fill="#ffffff" stroke="#3F51B5" stroke-width="1.5"/>
    <line x1="0" y1="20" x2="40" y2="20" stroke="#C5CAE9" stroke-width="1"/>
    <line x1="0" y1="30" x2="40" y2="30" stroke="#C5CAE9" stroke-width="1"/>
    <line x1="13" y1="10" x2="13" y2="40" stroke="#C5CAE9" stroke-width="1"/>
    <line x1="26" y1="10" x2="26" y2="40" stroke="#C5CAE9" stroke-width="1"/>
    <text x="7" y="27" font-family="Arial" font-weight="bold" font-size="6" fill="#3F51B5">D</text>
    <text x="20" y="27" font-family="Arial" font-weight="bold" font-size="6" fill="#3F51B5">H</text>
    <text x="33" y="27" font-family="Arial" font-weight="bold" font-size="6" fill="#3F51B5">S</text>
  </g>
  <text x="160" y="345" font-family="Arial, sans-serif" font-size="10" text-anchor="middle" fill="#3F51B5">CONTABILIDAD</text>
  
  <!-- 7. IMPUESTOS (izquierda) -->
  <g transform="translate(120, 230)">
    <rect x="0" y="0" width="40" height="40" rx="2" fill="#ffffff" stroke="#795548" stroke-width="1.5" filter="url(#shadow)"/>
    <text x="20" y="20" font-family="Arial" font-weight="bold" font-size="14" text-anchor="middle" fill="#795548">%</text>
    <rect x="5" y="25" width="30" height="10" rx="2" fill="#D7CCC8"/>
    <text x="20" y="33" font-family="Arial" font-weight="bold" font-size="8" text-anchor="middle" fill="#795548">TAX</text>
  </g>
  <text x="140" y="285" font-family="Arial, sans-serif" font-size="10" text-anchor="middle" fill="#795548">IMPUESTOS</text>
  
  <!-- 8. REPORTES (izquierda superior) -->
  <g transform="translate(140, 170)">
    <rect x="0" y="0" width="40" height="40" rx="2" fill="#ffffff" stroke="#009688" stroke-width="1.5" filter="url(#shadow)"/>
    <rect x="5" y="5" width="30" height="5" rx="1" fill="#B2DFDB"/>
    <path d="M8,15 L32,15" stroke="#009688" stroke-width="1.5"/>
    <path d="M8,20 L28,20" stroke="#009688" stroke-width="1.5"/>
    <path d="M8,25 L30,25" stroke="#009688" stroke-width="1.5"/>
    <rect x="5" y="30" width="30" height="5" rx="1" fill="#B2DFDB"/>
  </g>
  <text x="160" y="225" font-family="Arial, sans-serif" font-size="10" text-anchor="middle" fill="#009688">REPORTES</text>
  
  <!-- 9. BANCOS (arriba izquierda) -->
  <g transform="translate(190, 110)">
    <rect x="0" y="0" width="40" height="35" rx="4" fill="#ffffff" stroke="#1976D2" stroke-width="1.5" filter="url(#shadow)"/>
    <rect x="0" y="8" width="40" height="10" fill="#1976D2"/>
    <rect x="15" y="0" width="10" height="8" rx="2" fill="#1976D2"/>
    <circle cx="10" cy="25" r="5" fill="#BBDEFB"/>
    <circle cx="30" cy="25" r="5" fill="#BBDEFB"/>
    <path d="M5,5 L35,5" stroke="#BBDEFB" stroke-width="1"/>
  </g>
  <path d="M210,155 L220,215" stroke="#1976D2" stroke-width="2" fill="none" marker-end="url(#arrowhead)"/>
  <text x="210" y="155" font-family="Arial, sans-serif" font-size="10" text-anchor="middle" fill="#1976D2">BANCOS</text>
  
  <!-- 10. CRM (arriba derecha) -->
  <g transform="translate(270, 110)">
    <rect x="0" y="0" width="40" height="35" rx="4" fill="#ffffff" stroke="#E91E63" stroke-width="1.5" filter="url(#shadow)"/>
    <circle cx="13" cy="15" r="8" fill="#FCE4EC"/>
    <circle cx="27" cy="15" r="8" fill="#FCE4EC"/>
    <path d="M10,15 L16,15" stroke="#E91E63" stroke-width="1.5"/>
    <path d="M24,15 L30,15" stroke="#E91E63" stroke-width="1.5"/>
    <path d="M13,11 L13,19" stroke="#E91E63" stroke-width="1.5"/>
    <path d="M13,15 C18,25 22,25 27,15" stroke="#E91E63" stroke-width="1.5" fill="none"/>
    <path d="M8,25 L32,25" stroke="#E91E63" stroke-width="1.5"/>
    <path d="M8,29 L32,29" stroke="#E91E63" stroke-width="1.5"/>
  </g>
  <path d="M290,155 L280,215" stroke="#E91E63" stroke-width="2" fill="none" marker-end="url(#arrowhead)"/>
  <text x="290" y="155" font-family="Arial, sans-serif" font-size="10" text-anchor="middle" fill="#E91E63">CRM</text>
  
  <!-- 11. ANALYTICS (abajo izquierda) -->
  <g transform="translate(170, 350)">
    <rect x="0" y="0" width="40" height="35" rx="4" fill="#ffffff" stroke="#673AB7" stroke-width="1.5" filter="url(#shadow)"/>
    <rect x="5" y="20" width="5" height="10" fill="#D1C4E9"/>
    <rect x="13" y="15" width="5" height="15" fill="#D1C4E9"/>
    <rect x="21" y="10" width="5" height="20" fill="#D1C4E9"/>
    <rect x="29" y="5" width="5" height="25" fill="#D1C4E9"/>
    <path d="M5,10 L35,30" stroke="#673AB7" stroke-width="1.5" fill="none"/>
  </g>
  <path d="M190,350 L220,285" stroke="#673AB7" stroke-width="2" fill="none" marker-end="url(#arrowhead)"/>
  <text x="190" y="395" font-family="Arial, sans-serif" font-size="10" text-anchor="middle" fill="#673AB7">ANALYTICS</text>
  
  <!-- 12. CLOUD (abajo derecha) -->
  <g transform="translate(290, 350)">
    <rect x="0" y="0" width="40" height="35" rx="4" fill="#ffffff" stroke="#0288D1" stroke-width="1.5" filter="url(#shadow)"/>
    <path d="M10,20 C5,20 5,15 10,15 C10,10 20,10 20,15 C25,10 35,15 30,20 Z" fill="#B3E5FC"/>
    <path d="M15,25 L20,20 L25,25" stroke="#0288D1" stroke-width="1.5" fill="none"/>
    <path d="M20,20 L20,30" stroke="#0288D1" stroke-width="1.5" fill="none"/>
  </g>
  <path d="M310,350 L280,285" stroke="#0288D1" stroke-width="2" fill="none" marker-end="url(#arrowhead)"/>
  <text x="310" y="395" font-family="Arial, sans-serif" font-size="10" text-anchor="middle" fill="#0288D1">CLOUD</text>
  
  <!-- Definición de marcador de flecha para los conectores -->
  <defs>
    <marker id="arrowhead" markerWidth="10" markerHeight="7" refX="9" refY="3.5" orient="auto">
      <polygon points="0 0, 10 3.5, 0 7" fill="#757575"/>
    </marker>
  </defs>
  
  <!-- Texto PgFacture® debajo -->
  <text x="250" y="450" font-family="Arial, Helvetica, sans-serif" font-weight="600" font-size="30" text-anchor="middle"><tspan fill="#1a237e">Pg</tspan><tspan fill="#2E7D32">Facture</tspan><tspan font-size="16" dy="-12">®</tspan></text>
</svg>
