<svg xmlns="http://www.w3.org/2000/svg" viewBox="0 0 448 512">
  <!-- Gradiente de fondo azul a morado -->
  <defs>
    <linearGradient id="gradienteBg" x1="0%" y1="100%" x2="100%" y2="0%">
      <stop offset="0%" stop-color="#4389FF" />
      <stop offset="100%" stop-color="#6040FF" />
    </linearGradient>
  </defs>
  
  <!-- Base de documento con pestaña superior -->
  <path d="M64 32C28.7 32 0 60.7 0 96V416c0 35.3 28.7 64 64 64H384c35.3 0 64-28.7 64-64V96c0-35.3-28.7-64-64-64H64z" fill="url(#gradienteBg)"/>
  
  <!-- Símbolo de engranaje (parametrización) -->
  <path d="M280 72c0-4.4-3.6-8-8-8H176c-4.4 0-8 3.6-8 8v16c0 4.4 3.6 8 8 8h96c4.4 0 8-3.6 8-8V72zm-8 40H176c-4.4 0-8 3.6-8 8v16c0 4.4 3.6 8 8 8h96c4.4 0 8-3.6 8-8v-16c0-4.4-3.6-8-8-8z" fill="#FFFFFF"/>
  
  <!-- Símbolo de engranaje (configuración) -->
  <path d="M347.6 180.8c-2.6-8.1-10.5-13.3-18.7-12.9-8.4 .4-15.4 5.9-17.4 14.3-2.9 11.9-13.3 20.5-25.5 20.5s-22.6-8.6-25.5-20.5c-2-8.4-9-14-17.4-14.3-8.3-.4-16.1 4.8-18.7 12.9-10.5 32.7 3.8 68.9 33.5 82.1 29.7 13.2 64.2 .5 80.9-29.8 9.7-17.7 10.7-39 4.9-54.3z" fill="#FFFFFF"/>
  
  <!-- Gráfica de barras (gastos) -->
  <rect x="80" y="230" width="40" height="160" fill="#FFFFFF" opacity="0.8"/>
  <rect x="140" y="260" width="40" height="130" fill="#FFFFFF" opacity="0.8"/>
  <rect x="200" y="190" width="40" height="200" fill="#FFFFFF" opacity="0.8"/>
  <rect x="260" y="280" width="40" height="110" fill="#FFFFFF" opacity="0.8"/>
  <rect x="320" y="210" width="40" height="180" fill="#FFFFFF" opacity="0.8"/>
  
  <!-- Línea base de la gráfica -->
  <line x1="70" y1="390" x2="370" y2="390" stroke="#FFFFFF" stroke-width="4"/>
  
  <!-- Símbolo de moneda -->
  <text x="224" y="450" font-family="Arial, sans-serif" font-size="40" font-weight="bold" text-anchor="middle" fill="#FFFFFF">$</text>
</svg>
