<svg xmlns="http://www.w3.org/2000/svg" viewBox="0 0 448 512">
  <!-- Gradiente de fondo azul a morado -->
  <defs>
    <linearGradient id="gradienteBg" x1="0%" y1="100%" x2="100%" y2="0%">
      <stop offset="0%" stop-color="#4389FF" />
      <stop offset="100%" stop-color="#6040FF" />
    </linearGradient>
  </defs>
  
  <!-- Base de libro contable / registro -->
  <path d="M96 0C43 0 0 43 0 96V416c0 53 43 96 96 96H384c35.3 0 64-28.7 64-64V160c0-35.3-28.7-64-64-64V32c0-17.7-14.3-32-32-32H96z" fill="url(#gradienteBg)"/>
  
  <!-- Líneas que representan entradas de asientos contables -->
  <rect x="80" y="120" width="288" height="2" fill="#FFFFFF" />
  <rect x="80" y="160" width="288" height="2" fill="#FFFFFF" />
  <rect x="80" y="200" width="288" height="2" fill="#FFFFFF" />
  <rect x="80" y="240" width="288" height="2" fill="#FFFFFF" />
  <rect x="80" y="280" width="288" height="2" fill="#FFFFFF" />
  <rect x="80" y="320" width="288" height="2" fill="#FFFFFF" />
  <rect x="80" y="360" width="288" height="2" fill="#FFFFFF" />
  
  <!-- Símbolos debe y haber -->
  <text x="120" y="145" font-family="Arial, sans-serif" font-size="18" font-weight="bold" fill="#FFFFFF">DEBE</text>
  <text x="310" y="145" font-family="Arial, sans-serif" font-size="18" font-weight="bold" fill="#FFFFFF">HABER</text>
  
  <!-- Representación visual de asientos -->
  <text x="115" y="185" font-family="Arial, sans-serif" font-size="18" font-weight="bold" fill="#FFFFFF">10,000</text>
  <text x="315" y="225" font-family="Arial, sans-serif" font-size="18" font-weight="bold" fill="#FFFFFF">10,000</text>
  
  <text x="115" y="265" font-family="Arial, sans-serif" font-size="18" font-weight="bold" fill="#FFFFFF">5,000</text>
  <text x="315" y="305" font-family="Arial, sans-serif" font-size="18" font-weight="bold" fill="#FFFFFF">5,000</text>
  
  <!-- Línea central divisoria -->
  <line x1="224" y1="120" x2="224" y2="360" stroke="#FFFFFF" stroke-width="2" stroke-dasharray="5,5" />
  
  <!-- Título en la parte superior -->
  <text x="224" y="90" font-family="Arial, sans-serif" font-size="24" font-weight="bold" text-anchor="middle" fill="#FFFFFF">ASIENTOS</text>
</svg>
